<?xml version="1.0" encoding="UTF-8"?>
<!DOCTYPE svg PUBLIC "-//W3C//DTD SVG 1.1//EN" "http://www.w3.org/Graphics/SVG/1.1/DTD/svg11.dtd">
<!-- Creator: CorelDRAW 2021 (64-Bit) -->
<svg xmlns="http://www.w3.org/2000/svg" xml:space="preserve" width="52.9166mm" height="15.8748mm" version="1.1" style="shape-rendering:geometricPrecision; text-rendering:geometricPrecision; image-rendering:optimizeQuality; fill-rule:evenodd; clip-rule:evenodd"
viewBox="0 0 5291.66 1587.48"
 xmlns:xlink="http://www.w3.org/1999/xlink"
 xmlns:xodm="http://www.corel.com/coreldraw/odm/2003">
 <defs>
  <style type="text/css">
   <![CDATA[
    .fil0 {fill:#E4722E;fill-rule:nonzero}
    .fil1 {fill:#444444;fill-rule:nonzero}
   ]]>
  </style>
 </defs>
 <g id="Layer_x0020_1">
  <metadata id="CorelCorpID_0Corel-Layer"/>
  <g id="_2384885413072">
   <path class="fil0" d="M844.6 1413.95c-58.17,-58.16 -428.5,-428.57 -428.5,-428.57 -33.71,-33.7 -70.89,-40.74 -104.36,-40.74l-136.4 -0.02 0 29.34c18.37,0 40.97,11.57 59.46,30.07 0,0 419.16,419.11 446.06,446.01 26.9,26.89 59.57,59.47 118.92,59.47 59.35,0 118.96,0 178.42,0 59.47,0 91.31,-31.83 118.94,-59.47 27.65,-27.64 319.15,-319.07 319.15,-319.07 24.54,-24.34 37.58,-58.77 37.58,-102.95l0.01 -142.97 -29.35 0c0,18.38 -11.55,49.3 -30.04,67.79 0,0 -402.52,402.54 -461.87,461.89 -39.04,39.04 -47.55,39.67 -88.02,-0.78z"/>
   <path class="fil0" d="M1358.42 691.56c-58.17,58.17 -428.57,428.51 -428.57,428.51 -33.71,33.7 -40.74,70.89 -40.74,104.37l-0.01 136.39 29.35 0c0,-18.39 11.55,-40.98 30.04,-59.46 0,0 419.12,-419.15 446.01,-446.06 26.91,-26.91 59.48,-59.59 59.48,-118.94 0,-59.36 0,-118.94 0,-178.42 0,-59.45 -31.83,-91.3 -59.48,-118.93 -27.63,-27.65 -319.07,-319.16 -319.07,-319.16 -24.33,-24.52 -58.77,-37.56 -102.95,-37.56l-142.96 -0.01 0 29.35c18.39,0 49.31,11.54 67.78,30.03 0,0 402.57,402.53 461.91,461.88 39.04,39.03 39.68,47.55 -0.79,88.01z"/>
   <path class="fil0" d="M636.03 177.75c58.17,58.16 428.5,428.57 428.5,428.57 33.72,33.68 70.89,40.73 104.37,40.73l136.4 0.02 0 -29.35c-18.38,0 -40.97,-11.56 -59.46,-30.05 0,0 -419.16,-419.12 -446.06,-446.02 -26.89,-26.89 -59.58,-59.46 -118.93,-59.46 -59.35,0 -118.95,0 -178.42,0 -59.47,0 -91.29,31.81 -118.94,59.46 -27.64,27.66 -319.15,319.07 -319.15,319.07 -24.52,24.36 -37.56,58.79 -37.56,102.96l-0.02 142.97 29.35 0c0,-18.39 11.54,-49.31 30.03,-67.79 0,0 402.54,-402.57 461.88,-461.9 39.03,-39.04 47.54,-39.69 88.01,0.79z"/>
   <path class="fil0" d="M122.22 900.12c58.16,-58.16 428.56,-428.49 428.56,-428.49 33.71,-33.71 40.74,-70.89 40.74,-104.37l0.03 -136.4 -29.35 0c0,18.37 -11.57,40.97 -30.05,59.44 0,0 -419.13,419.19 -446.02,446.09 -26.89,26.89 -59.47,59.57 -59.47,118.92 0,59.35 0,118.95 0,178.43 0,59.47 31.83,91.28 59.47,118.93 27.65,27.65 319.07,319.16 319.07,319.16 24.33,24.53 58.76,37.55 102.95,37.55l142.96 0.03 0 -29.35c-18.38,0 -49.3,-11.56 -67.78,-30.05 0,0 -402.56,-402.53 -461.9,-461.86 -39.03,-39.03 -39.68,-47.56 0.79,-88.03z"/>
   <path class="fil1" d="M2222.86 274.15c-13.93,-121.02 -111.48,-188.5 -225.9,-188.5 -161.37,0 -257.45,121.02 -257.45,276.52 0,151.09 96.08,272.11 257.45,272.11 129.08,0 218.57,-82.88 230.3,-214.17l-111.48 0c-8.81,69.68 -48.41,117.35 -118.82,117.35 -103.42,0 -142.3,-88.01 -142.3,-175.29 0,-91.69 38.88,-179.7 142.3,-179.7 56.47,0 106.35,39.6 114.42,91.68l111.48 0z"/>
   <path id="_1" class="fil1" d="M2387.15 432.58c0,-60.88 21.27,-121.76 91.69,-121.76 71.14,0 92.41,60.88 92.41,121.76 0,60.87 -21.27,121.02 -92.41,121.02 -70.42,0 -91.69,-60.15 -91.69,-121.02zm-104.15 0c0,120.28 77.01,199.5 195.84,199.5 119.55,0 196.56,-79.22 196.56,-199.5 0,-121.02 -77.01,-200.24 -196.56,-200.24 -118.83,0 -195.84,79.22 -195.84,200.24z"/>
   <path id="_2" class="fil1" d="M2742.88 621.81l104.15 0 0 -170.9c0,-67.47 25.67,-121.75 102.68,-121.75 12.47,0 27.87,1.47 37.41,3.67l0 -96.82c-7.34,-2.2 -14.67,-3.67 -22.74,-3.67 -52.07,0 -101.22,33.01 -121.02,80.68l-1.47 0 0 -70.41 -99.01 0 0 379.2z"/>
   <path id="_3" class="fil1" d="M3219.63 553.6c-67.48,0 -90.95,-58.68 -90.95,-120.29 0,-61.61 22,-122.49 90.22,-122.49 66.74,0 90.95,61.61 90.95,122.49 0,61.61 -22.01,120.29 -90.22,120.29zm-191.43 201.7l104.15 0 0 -180.43 1.47 0c25.67,37.41 67.47,57.21 113.68,57.21 111.49,0 166.5,-94.62 166.5,-195.84 0,-107.81 -53.55,-203.9 -172.37,-203.9 -46.94,0 -87.28,17.61 -112.95,58.68l-1.47 0 0 -48.41 -99.01 0 0 512.69z"/>
   <path id="_4" class="fil1" d="M3568.75 432.58c0,-60.88 21.27,-121.76 91.69,-121.76 71.14,0 92.41,60.88 92.41,121.76 0,60.87 -21.27,121.02 -92.41,121.02 -70.42,0 -91.69,-60.15 -91.69,-121.02zm-104.15 0c0,120.28 77.01,199.5 195.84,199.5 119.55,0 196.56,-79.22 196.56,-199.5 0,-121.02 -77.01,-200.24 -196.56,-200.24 -118.83,0 -195.84,79.22 -195.84,200.24z"/>
   <path id="_5" class="fil1" d="M3924.48 621.81l104.15 0 0 -170.9c0,-67.47 25.67,-121.75 102.68,-121.75 12.47,0 27.87,1.47 37.41,3.67l0 -96.82c-7.34,-2.2 -14.67,-3.67 -22.74,-3.67 -52.07,0 -101.22,33.01 -121.02,80.68l-1.47 0 0 -70.41 -99.01 0 0 379.2z"/>
   <path id="_6" class="fil1" d="M4309.55 359.23c3.66,-41.07 28.6,-57.21 68.94,-57.21 36.68,0 67.48,7.34 67.48,51.34 4.4,85.08 -250.84,-7.33 -252.31,165.03 0,77.75 56.48,113.69 129.09,113.69 46.94,0 94.62,-12.47 127.62,-46.94 0.74,12.47 3.67,24.93 7.34,36.67l105.61 0c-9.53,-15.4 -13.2,-49.88 -13.2,-84.35l0 -197.3c0,-90.95 -90.95,-107.82 -166.49,-107.82 -85.08,0 -172.37,30.07 -178.23,126.89l104.15 0zm136.42 115.89c0,23.47 -2.93,87.28 -84.35,87.28 -33.74,0 -63.81,-10.27 -63.81,-48.41 0,-38.14 29.34,-49.87 61.61,-55.74 32.27,-5.87 68.95,-6.6 86.55,-22.01l0 38.88z"/>
   <path id="_7" class="fil1" d="M4762.83 128.92l-104.15 0 0 113.69 -63.08 0 0 69.68 63.08 0 0 223.71c0,76.28 55.01,90.21 119.55,90.21 20.54,0 43.28,-0.73 60.88,-3.67l0 -81.41c-9.54,2.2 -20.54,2.93 -32.27,2.93 -35.21,0 -44.01,-8.8 -44.01,-44l0 -187.77 76.28 0 0 -69.68 -76.28 0 0 -113.69z"/>
   <path id="_8" class="fil1" d="M4974.8 391.5c2.2,-29.33 19.07,-80.68 86.55,-80.68 50.61,0 73.35,27.87 82.88,80.68l-169.43 0zm273.58 66.01c8.07,-116.62 -55.01,-225.17 -184.1,-225.17 -115.15,0 -193.63,86.55 -193.63,200.24 0,117.35 74.08,199.5 193.63,199.5 85.82,0 148.16,-37.41 177.5,-127.62l-91.68 0c-6.6,23.47 -40.34,49.14 -82.15,49.14 -58.68,0 -90.21,-29.34 -93.15,-96.09l273.58 0z"/>
   <polygon id="_9" class="fil1" points="1762.25,1496.82 1877.4,1496.82 1877.4,1280.45 2096.71,1280.45 2096.71,1190.97 1877.4,1190.97 1877.4,1069.95 2130.45,1069.95 2130.45,973.13 1762.25,973.13 "/>
   <path id="_10" class="fil1" d="M2293.27 973.13l-104.15 0 0 85.81 104.15 0 0 -85.81zm-104.15 523.69l104.15 0 0 -379.2 -104.15 0 0 379.2z"/>
   <path id="_11" class="fil1" d="M2375.42 1496.82l104.15 0 0 -170.9c0,-67.47 25.67,-121.75 102.68,-121.75 12.47,0 27.87,1.47 37.41,3.67l0 -96.82c-7.34,-2.2 -14.67,-3.67 -22.74,-3.67 -52.07,0 -101.22,33.01 -121.02,80.68l-1.47 0 0 -70.41 -99.01 0 0 379.2z"/>
   <path id="_12" class="fil1" d="M2663.67 1496.82l104.15 0 0 -220.04c0,-74.08 49.88,-87.28 70.41,-87.28 66.02,0 63.08,50.61 63.08,94.62l0 212.7 104.15 0 0 -211.24c0,-46.94 11,-96.08 69.68,-96.08 59.41,0 63.81,41.81 63.81,92.42l0 214.9 104.15 0 0 -253.78c0,-98.28 -57.94,-135.69 -138.62,-135.69 -52.81,0 -91.68,30.07 -114.42,63.08 -20.54,-46.21 -63.08,-63.08 -110.75,-63.08 -49.88,0 -88.75,22.74 -115.89,61.61l-1.47 0 0 -51.34 -98.28 0 0 379.2z"/>
   <path id="_13" class="fil1" d="M3425 1234.24c3.66,-41.07 28.6,-57.21 68.94,-57.21 36.68,0 67.48,7.34 67.48,51.34 4.4,85.08 -250.84,-7.33 -252.31,165.03 0,77.75 56.48,113.69 129.09,113.69 46.94,0 94.62,-12.47 127.62,-46.94 0.74,12.47 3.67,24.93 7.34,36.67l105.61 0c-9.53,-15.4 -13.2,-49.88 -13.2,-84.35l0 -197.3c0,-90.95 -90.95,-107.82 -166.49,-107.82 -85.08,0 -172.37,30.07 -178.23,126.89l104.15 0zm136.42 115.89c0,23.47 -2.93,87.28 -84.35,87.28 -33.74,0 -63.81,-10.27 -63.81,-48.41 0,-38.14 29.34,-49.87 61.61,-55.74 32.27,-5.87 68.95,-6.6 86.55,-22.01l0 38.88z"/>
  </g>
 </g>
</svg>
